


Format                           : AVI
Format/Info                      : Audio Video Interleave
File size                        : 1.47 GiB
Duration                         : 1h 44mn
Overall bit rate                 : 2 017 Kbps
Writing application              : VirtualDubMod 1.5.10.3 | www.virtualdub-fr.org || (build 2550/release)
Writing library                  : VirtualDubMod build 2550/release

Video
ID                               : 0
Format                           : MPEG-4 Visual
Format profile                   : Advanced Simple@L5
Format settings, BVOP            : Yes
Format settings, QPel            : No
Format settings, GMC             : No warppoints
Format settings, Matrix          : Custom
Codec ID                         : XVID
Codec ID/Hint                    : XviD
Duration                         : 1h 44mn
Bit rate                         : 1 879 Kbps
Width                            : 720 pixels
Height                           : 304 pixels
Display aspect ratio             : 2.35:1
Frame rate                       : 25.000 fps
Color space                      : YUV
Chroma subsampling               : 4:2:0
Bit depth                        : 8 bits
Scan type                        : Progressive
Bits/(Pixel*Frame)               : 0.343
Stream size                      : 1.37 GiB (93%)
Writing library                  : XviD 1.2.1 (UTC 2008-12-04)

Audio
ID                               : 1
Format                           : MPEG Audio
Format version                   : Version 1
Format profile                   : Layer 3
Mode                             : Joint stereo
Mode extension                   : MS Stereo
Codec ID                         : 55
Codec ID/Hint                    : MP3
Duration                         : 1h 44mn
Bit rate mode                    : Constant
Bit rate                         : 128 Kbps
Channel(s)                       : 2 channels
Sampling rate                    : 44.1 KHz
Video delay                      : 4ms
Stream size                      : 95.2 MiB (6%)
Alignment                        : Split accross interleaves
Interleave, duration             : 40 ms (1.00 video frame)
Interleave, preload duration     : 500 ms



 
http://www.imdb.com/title/tt0800369/







Users: 7.7/10 (7,204 votes) 115 reviews | Critics: 95 reviews

The powerful but arrogant warrior Thor is cast out of the fantastic realm of Asgard and sent to live amongst humans on Earth, where he soon becomes one of their finest defenders.
Director:
Kenneth Branagh
Writers:
Ashley Miller (screenplay), Zack Stentz (screenplay), and 6 more credits »
Stars:
Chris Hemsworth, Anthony Hopkins and Natalie Portman






 
http://img638.imageshack.us/img638/8379/vlcsnap2011050209h14m13.png
 
http://img69.imageshack.us/img69/9079/vlcsnap2011050209h29m25.png
 
http://img831.imageshack.us/img831/5469/vlcsnap2011050209h31m04.png



SOURCES:



VIDEO:Thor.iNT.CAM.XviD.Hungarian-G1-CiNEDUB

AUDIO:IMAGiNE

Source has a few issues but this is watchable for now till a better source comes along ......Has a scroll/flicker from time to time ,glare which i tried to tone down abit  other than that changed rgb colours levels filter and slight smoother 

Enjoy !





Greetz to Imagine ,Flawl3ss,DiLLoN,BDK,NOiR,TOXiCiNK,THC,Ez,Rx,Boobyblue,TaRiQ786,LKRG












